<svg width="128" height="41" viewBox="0 0 128 41" fill="none" xmlns="http://www.w3.org/2000/svg">
<g clip-path="url(#clip0_28_71)">
<path d="M127.11 28.0237C126.893 28.0237 126.694 28.1644 126.592 28.4584C125.28 32.1979 123.507 34.4223 122.048 34.4223C121.21 34.4223 120.87 33.4891 120.87 32.0253C120.87 28.3625 123.066 20.5959 124.173 17.0546C124.301 16.6263 124.384 16.2428 124.384 15.9168C124.384 14.8876 123.821 14.3826 122.426 14.3826C120.922 14.3826 119.302 14.9707 117.728 17.7258C117.184 15.2967 115.539 14.2356 113.242 14.2356C110.586 14.2356 108.019 15.9423 105.907 18.7102C103.795 21.478 101.312 22.3857 99.4435 21.9383C100.787 18.6527 101.286 16.198 101.286 14.3762C101.286 11.5189 99.872 9.79294 97.5875 9.79294C94.112 9.79294 92.1086 13.1042 92.1086 16.5879C92.1086 19.2791 93.3315 22.0469 96.0195 23.3893C93.7663 28.4775 90.4765 33.08 89.2285 33.08C87.616 33.08 87.1423 25.1983 87.232 19.5603C87.2897 16.3258 87.5583 16.1597 87.5583 15.1816C87.5583 14.6191 87.1937 14.2356 85.728 14.2356C82.3103 14.2356 81.2543 17.1249 81.0943 20.4425C81.0428 21.7033 80.8452 22.9538 80.5057 24.1692C79.0783 29.2574 76.1343 33.1184 74.2143 33.1184C73.3246 33.1184 73.0817 32.2298 73.0817 31.0664C73.0817 27.4036 75.136 22.8268 75.136 18.9211C75.136 16.051 73.8755 14.2356 71.5005 14.2356C68.704 14.2356 65.0046 17.5595 61.504 23.7856C62.656 19.017 63.1297 14.4018 59.7184 14.4018C58.9784 14.4128 58.2518 14.6014 57.6 14.9515C57.3811 15.0537 57.1982 15.2193 57.075 15.4268C56.9517 15.6343 56.8937 15.8741 56.9088 16.1149C57.2352 21.1904 52.8128 34.1922 48.6208 34.1922C47.8592 34.1922 47.488 33.3676 47.488 32.038C47.488 28.3689 49.6768 20.6214 50.7776 17.0737C50.9184 16.6135 50.9952 16.2172 50.9952 15.872C50.9952 14.9003 50.3936 14.4018 49.0304 14.4018C47.5328 14.4018 45.9072 14.9707 44.3392 17.7258C43.7888 15.2967 42.144 14.2356 39.8464 14.2356C36.0768 14.2356 31.8656 18.2179 30.016 23.4085C27.5392 30.3377 22.5472 37.0304 15.8272 37.0304C9.728 37.0304 6.5088 31.9613 6.5088 23.9518C6.5088 12.3882 15.008 2.94044 21.312 2.94044C24.3264 2.94044 25.7664 4.85812 25.7664 7.79858C25.7664 11.3591 23.776 13.0147 23.776 14.3698C23.776 14.7853 24.1216 15.1944 24.8064 15.1944C27.5456 15.1944 30.7712 11.9791 30.7712 7.59402C30.7712 3.20892 27.2064 0 20.9024 0C10.4832 0 0 10.4705 0 23.8879C0 34.563 5.2736 41 14.3936 41C20.6144 41 26.048 36.1674 28.9792 30.5295C29.312 35.2022 31.4368 37.6441 34.6752 37.6441C37.5552 37.6441 39.8848 35.931 41.664 32.9202C42.3488 36.0715 44.1664 37.6121 46.528 37.6121C49.2352 37.6121 51.5008 35.899 53.6576 32.7156C53.6256 35.215 54.1952 37.5674 56.3648 37.5674C57.3888 37.5674 58.6112 37.3308 58.8288 36.4359C61.1136 27.001 66.7583 19.2983 68.4863 19.2983C68.9983 19.2983 69.1395 19.7904 69.1395 20.3721C69.1395 22.9355 67.328 28.1899 67.328 31.5458C67.328 35.1702 68.8703 37.5674 72.0577 37.5674C75.5903 37.5674 79.1806 33.2462 81.5743 26.9306C82.3235 32.8307 83.9423 37.5929 86.4766 37.5929C89.5875 37.5929 95.1103 31.0537 98.4577 24.1308C99.7697 24.297 101.741 24.2523 103.635 22.9163C102.829 24.9554 102.355 27.1863 102.355 29.4172C102.355 35.8414 105.427 37.6441 108.07 37.6441C110.944 37.6441 113.274 35.931 115.059 32.9202C115.648 35.6369 117.152 37.6057 119.917 37.6057C124.243 37.6057 128 33.1887 128 29.5642C128 28.6054 127.59 28.0237 127.11 28.0237ZM37.312 34.0836C35.5648 34.0836 34.88 32.3257 34.88 29.7049C34.88 25.1536 37.9968 17.5532 41.2928 17.5532C42.7328 17.5532 43.2768 19.2471 43.2768 21.3182C43.2768 25.9398 40.3136 34.0836 37.312 34.0836ZM97.1583 20.5C96.1154 19.2599 95.7377 17.5723 95.7377 16.0702C95.7377 14.2164 96.416 12.6503 97.2285 12.6503C98.0417 12.6503 98.2915 13.4493 98.2915 14.5616C98.2915 16.4218 97.6257 19.1384 97.1583 20.5ZM110.707 34.0836C108.96 34.0836 108.275 32.0636 108.275 29.7049C108.275 25.3134 111.392 17.5532 114.714 17.5532C116.154 17.5532 116.666 19.2344 116.666 21.3182C116.666 25.9398 113.754 34.0836 110.707 34.0836Z" fill="url(#paint0_linear_28_71)"/>
</g>
<defs>
<linearGradient id="paint0_linear_28_71" x1="12.2353" y1="4.80292e-06" x2="128.091" y2="32.7937" gradientUnits="userSpaceOnUse">
<stop stop-color="#00BBC6"/>
<stop offset="0.489354" stop-color="#355AE4"/>
<stop offset="1" stop-color="#7225E3"/>
</linearGradient>
<clipPath id="clip0_28_71">
<rect width="128" height="41" fill="white"/>
</clipPath>
</defs>
</svg>
