<svg fill="none" height="72" viewBox="0 0 226 72" width="226" xmlns="http://www.w3.org/2000/svg"><path d="m.58 30v-29.5h8.82c1.96 0 3.74.353333 5.34 1.06 1.6.69333 2.9733 1.68667 4.12 2.98s2.0333 2.84667 2.66 4.66c.6267 1.8.94 3.8067.94 6.02s-.3133 4.2267-.94 6.04c-.6267 1.8-1.5133 3.3533-2.66 4.66s-2.52 2.3133-4.12 3.02-3.38 1.06-5.34 1.06zm5.28-1.58-2.38-2.62h5.24c1.6 0 3.0267-.4267 4.28-1.28 1.2667-.8667 2.2667-2.0867 3-3.66.7333-1.5867 1.1-3.4667 1.1-5.64 0-2.1867-.3667-4.0667-1.1-5.64-.7333-1.57333-1.7333-2.78-3-3.62-1.2533-.84-2.68-1.26-4.28-1.26h-5.24l2.38-2.62zm18.3219 1.58 7.62-29.540002h8.32l7.56 29.540002h-5.42l-6.32-26.28h.04l-6.38 26.28zm4.92-7.18v-4.22h13.72v4.22zm43.1734-3.54c0 3.76-.96 6.56-2.88 8.4-1.9067 1.84-4.54 2.76-7.9 2.76-3.3333 0-5.9533-.92-7.86-2.76s-2.86-4.64-2.86-8.4c0-.5467 0-1.12 0-1.72s0-1.2267 0-1.88v-15.18h5.28v15.86 1.58 1.38c0 2.3733.44 4.1 1.32 5.18.8933 1.08 2.2667 1.62 4.12 1.62 1.88 0 3.2667-.54 4.16-1.62s1.34-2.8067 1.34-5.18v-18.82h5.28zm16.7206 11.16c-2.2933 0-4.38-.5867-6.26-1.76-1.8666-1.1733-3.3533-2.8867-4.46-5.14-1.1066-2.2533-1.66-4.9933-1.66-8.22 0-3.24.5734-5.99333 1.72-8.26 1.1467-2.26667 2.6934-3.99333 4.64-5.18 1.96-1.200001 4.1467-1.800001 6.56-1.800001 2 0 3.6934.333333 5.08 1.000001 1.4.65333 2.5334 1.5 3.4 2.54.88 1.04 1.5134 2.13333 1.9 3.28.4001 1.14667.6001 2.21333.6001 3.2v.12.12h-5.1201c0-.04 0-.08 0-.12s0-.08 0-.12c0-.69333-.12-1.37333-.36-2.04s-.6066-1.27333-1.1-1.82c-.4933-.54667-1.1066-.98-1.84-1.3-.7333-.32-1.5866-.48-2.56-.48-1.32 0-2.56.36667-3.72 1.1-1.1466.73333-2.08 1.9-2.8 3.5-.7066 1.5867-1.06 3.6733-1.06 6.26 0 1.96.2 3.6267.6 5s.94 2.4867 1.62 3.34c.6934.8533 1.48 1.48 2.36 1.88.8934.3867 1.8334.58 2.82.58 1.3334 0 2.44-.2267 3.32-.68.8934-.4533 1.5867-1.02 2.08-1.7.5067-.68.8267-1.3467.96-2v-2.3h-6.3v-3.96h11.0201v14.52h-3.0401l-.44-3.28c-.0933.24-.3133.5667-.66.98-.3333.4133-.8133.8333-1.44 1.26-.6266.4133-1.4266.76-2.4 1.04-.96.2933-2.1133.44-3.46.44zm14.0531-.44 7.62-29.540002h8.32l7.56 29.540002h-5.42l-6.32-26.28h.04l-6.38 26.28zm4.92-7.18v-4.22h13.72v4.22zm20.705 7.18 7.62-29.540002h8.32l7.56 29.540002h-5.42l-6.32-26.28h.04l-6.38 26.28zm4.92-7.18v-4.22h13.72v4.22zm22.22 7.18v-29.5h11.36c2.974 0 5.207.68 6.7 2.04 1.494 1.36 2.24 3.36 2.24 6 0 1.5467-.293 2.86-.88 3.94-.586 1.08-1.3 1.9133-2.14 2.5s-1.64.92-2.4 1c.774.0533 1.52.2533 2.24.6s1.307.8933 1.76 1.64c.467.7333.7 1.7267.7 2.98v3 2.98c0 .6267.054 1.2067.16 1.74.107.52.24.88.4 1.08h-5.3c-.133-.24-.253-.6067-.36-1.1-.093-.5067-.14-1.08-.14-1.72 0-.9067 0-1.7933 0-2.66 0-.88 0-1.78 0-2.7 0-1.2133-.34-2.1333-1.02-2.76s-1.706-.94-3.08-.94h-6.5l1.4-1.78v13.66zm5.14-14.1-1.4-1.98h6.54c.867 0 1.647-.2 2.34-.6.694-.4133 1.24-.9867 1.64-1.72.414-.7333.62-1.5933.62-2.58 0-1.44-.413-2.52-1.24-3.24-.826-.72-2-1.08-3.52-1.08h-6.52l1.54-1.86zm19.782 14.1v-29.5h8.82c1.96 0 3.74.353333 5.34 1.06 1.6.69333 2.974 1.68667 4.12 2.98 1.147 1.29333 2.034 2.84667 2.66 4.66.627 1.8.94 3.8067.94 6.02s-.313 4.2267-.94 6.04c-.626 1.8-1.513 3.3533-2.66 4.66-1.146 1.3067-2.52 2.3133-4.12 3.02s-3.38 1.06-5.34 1.06zm5.28-1.58-2.38-2.62h5.24c1.6 0 3.027-.4267 4.28-1.28 1.267-.8667 2.267-2.0867 3-3.66.734-1.5867 1.1-3.4667 1.1-5.64 0-2.1867-.366-4.0667-1.1-5.64-.733-1.57333-1.733-2.78-3-3.62-1.253-.84-2.68-1.26-4.28-1.26h-5.24l2.38-2.62zm-163.536 32.32c0 1.1867-.22 2.4067-.66 3.66-.44 1.24-1.1067 2.3933-2 3.46-.88 1.0533-1.9933 1.9067-3.34 2.56s-2.9267.98-4.74.98c-2.49333 0-4.61333-.6467-6.36-1.94-1.74667-1.3067-3.08-3.1-4-5.38-.906667-2.28-1.3599999-4.8867-1.3599999-7.82 0-2.9467.4533329-5.5533 1.3599999-7.82.92-2.28 2.25333-4.0667 4-5.36s3.86667-1.94 6.36-1.94c2.08 0 3.8533.4267 5.32 1.28s2.6333 1.94 3.5 3.26 1.4333 2.68 1.7 4.08c.1467.7067.22 1.3733.22 2h-3.42c0-.36-.0333-.7733-.1-1.24-.16-1.12-.5467-2.1533-1.16-3.1-.6-.96-1.4067-1.7267-2.42-2.3-1.0133-.5867-2.2267-.88-3.64-.88-1.6533 0-3.1.4533-4.34 1.36-1.22667.9067-2.18667 2.2533-2.88 4.04-.68 1.7867-1.02 3.9933-1.02 6.62s.34 4.84 1.02 6.64c.69333 1.7867 1.65333 3.14 2.88 4.06 1.24.9067 2.6867 1.36 4.34 1.36 1.1867 0 2.2333-.2133 3.14-.64.9067-.44 1.6667-1.02 2.28-1.74.6267-.7333 1.1-1.5467 1.42-2.44.32-.9067.48-1.8267.48-2.76zm15.8244 10.66c-1.72 0-3.3-.34-4.74-1.02-1.4267-.68-2.6734-1.6667-3.74-2.96-1.0534-1.3067-1.8734-2.9-2.46-4.78-.5734-1.88-.86-4.02-.86-6.42s.2866-4.5333.86-6.4c.5866-1.88 1.4066-3.46 2.46-4.74 1.0666-1.2933 2.32-2.2733 3.76-2.94s3.0133-1 4.72-1c1.72 0 3.3.3333 4.74 1s2.6866 1.6467 3.74 2.94c1.0666 1.28 1.8866 2.86 2.46 4.74.5866 1.8667.88 4 .88 6.4s-.2934 4.54-.88 6.42c-.5734 1.88-1.3934 3.4733-2.46 4.78-1.0534 1.2933-2.3 2.28-3.74 2.96s-3.02 1.02-4.74 1.02zm0-3.08c1.64 0 3.0866-.4467 4.34-1.34 1.2533-.8933 2.2333-2.2333 2.94-4.02.7066-1.8 1.06-4.0467 1.06-6.74 0-2.7067-.36-4.9467-1.08-6.72-.7067-1.7733-1.6867-3.0933-2.94-3.96-1.2534-.8667-2.6934-1.3-4.32-1.3-1.6134 0-3.0534.4333-4.32 1.3-1.2534.8667-2.24 2.1867-2.96 3.96-.7067 1.7733-1.06 4.0133-1.06 6.72s.3533 4.96 1.06 6.76c.72 1.7867 1.7066 3.1267 2.96 4.02 1.2666.88 2.7066 1.32 4.32 1.32zm19.9762 2.68h-3.32v-29.5h5.58l12.52 27.54-.26.16v-27.7h3.32v29.5h-5.66l-12.48-27.5.3-.14zm32.3969.4c-2.04 0-3.7867-.32-5.24-.96-1.44-.6533-2.5467-1.6333-3.32-2.94s-1.16-2.9333-1.16-4.88c0-.2667 0-.4933 0-.68s0-.4133 0-.68h3.42v.64.66c0 2.04.5333 3.5133 1.6 4.42 1.0667.8933 2.62 1.34 4.66 1.34 2.1067 0 3.7-.36 4.78-1.08s1.62-1.8867 1.62-3.5c0-1.1333-.3133-2.0733-.94-2.82-.6133-.76-1.4667-1.4-2.56-1.92-1.0933-.5333-2.3667-1.02-3.82-1.46-1.64-.5067-3.1067-1.1467-4.4-1.92-1.28-.7733-2.2933-1.7267-3.04-2.86-.7333-1.1467-1.1-2.54-1.1-4.18 0-1.6.3867-2.9533 1.16-4.06.7867-1.1067 1.88-1.9467 3.28-2.52s3.0267-.86 4.88-.86c1.96 0 3.66.3067 5.1.92 1.4533.6 2.5733 1.52 3.36 2.76.8 1.2267 1.2005 2.7733 1.2005 4.64v.76.74h-3.4205c0-.2533 0-.48 0-.68s0-.4267 0-.68c0-1.9467-.5267-3.3267-1.58-4.14-1.0533-.8267-2.5867-1.24-4.6-1.24-1.9333 0-3.4267.34-4.48 1.02s-1.58 1.7933-1.58 3.34c0 1.16.32 2.12.96 2.88.6533.7467 1.54 1.3867 2.66 1.92 1.12.52 2.4 1.02 3.84 1.5 1.7467.5733 3.2467 1.2267 4.5 1.96 1.2667.72 2.2333 1.62 2.9 2.7.6805 1.08 1.0205 2.44 1.0205 4.08s-.3938 3.04-1.1805 4.2c-.7733 1.16-1.8867 2.0467-3.34 2.66-1.44.6133-3.1667.92-5.18.92zm34.8165-11.28c0 3.8267-.893 6.6667-2.68 8.52-1.787 1.84-4.273 2.76-7.46 2.76-3.173 0-5.653-.92-7.44-2.76-1.787-1.8533-2.68-4.6933-2.68-8.52 0-.5867 0-1.2067 0-1.86 0-.6667 0-1.3667 0-2.1v-14.66h3.42v14.96 1.94 1.66c0 2.96.567 5.08 1.7 6.36 1.133 1.2667 2.8 1.9 5 1.9 2.213 0 3.887-.6333 5.02-1.9 1.147-1.28 1.72-3.4 1.72-6.36v-18.56h3.4zm5.639 10.88v-29.5h3.42v28.44l-1.54-1.94h13.18v3zm32.6-26.5h-8.52l.78-1.94v28.44h-3.4v-28.44l.96 1.94h-8.68v-3h18.86zm4.532 26.5v-29.5h3.36v29.5zm12.477 0h-3.32v-29.5h5.58l12.52 27.54-.26.16v-27.7h3.32v29.5h-5.66l-12.48-27.5.3-.14zm34.576.4c-2.2 0-4.2-.6-6-1.8s-3.233-2.9267-4.3-5.18c-1.066-2.2533-1.6-4.9667-1.6-8.14s.54-5.8867 1.62-8.14 2.54-3.98 4.38-5.18c1.854-1.2133 3.927-1.82 6.22-1.82 1.867 0 3.447.3267 4.74.98 1.307.64 2.367 1.4733 3.18 2.5.827 1.0133 1.427 2.0933 1.8 3.24.374 1.1333.56 2.2.56 3.2v.12.12h-3.32c0-.04 0-.08 0-.12s0-.08 0-.12c0-.8-.14-1.6-.42-2.4-.266-.8133-.686-1.5467-1.26-2.2-.573-.6667-1.3-1.2-2.18-1.6-.866-.4-1.9-.6-3.1-.6-1.613 0-3.086.44-4.42 1.32-1.32.88-2.38 2.2133-3.18 4-.786 1.7733-1.18 4.0067-1.18 6.7 0 2.0667.22 3.86.66 5.38.44 1.5067 1.047 2.7533 1.82 3.74.774.9867 1.674 1.72 2.7 2.2 1.04.48 2.16.72 3.36.72 1.587 0 2.887-.2733 3.9-.82 1.027-.5467 1.82-1.2267 2.38-2.04.56-.8267.92-1.64 1.08-2.44v-3.1h-7.22v-2.86h10.3v13.94h-2.54l-.18-3.28c-.106.2-.326.5-.66.9-.333.4-.806.8133-1.42 1.24-.6.4267-1.373.7933-2.32 1.1-.946.2933-2.08.44-3.4.44z" fill="#1a3263"/></svg>