<svg width="120" height="120" viewBox="0 0 120 120" fill="none" xmlns="http://www.w3.org/2000/svg">
<path d="M118.741 22.5545C117.47 21.9196 116.923 23.1295 116.18 23.7437C115.925 23.9419 115.71 24.1993 115.495 24.4369C113.637 26.4592 111.467 27.7877 108.631 27.629C104.486 27.3914 100.945 28.7195 97.8166 31.9508C97.1517 27.9661 94.9421 25.586 91.5787 24.0604C89.8187 23.2674 88.0393 22.4739 86.807 20.7491C85.9467 19.5204 85.7119 18.1521 85.2817 16.8039C85.0082 15.9916 84.7337 15.1585 83.8146 15.0193C82.8174 14.8606 82.4257 15.7128 82.0352 16.4274C80.4706 19.342 79.8644 22.5535 79.9235 25.8045C80.0608 33.1209 83.0916 38.9488 89.115 43.0932C89.7993 43.5691 89.975 44.0447 89.7606 44.7386C89.3498 46.1664 88.8609 47.5538 88.4307 48.9816C88.1569 49.8937 87.7454 50.0919 86.7876 49.6956C83.483 48.2884 80.6272 46.2059 78.1044 43.6886C73.8216 39.4653 69.9499 34.8061 65.1193 31.1578C64.0014 30.3153 62.8534 29.5151 61.6774 28.759C56.7494 23.882 62.323 19.8765 63.6135 19.4012C64.9627 18.9052 64.083 17.2005 59.7214 17.2203C55.3604 17.24 51.3709 18.7268 46.2868 20.7096C45.5434 21.0075 44.7616 21.2254 43.9594 21.4031C39.3443 20.5108 34.5531 20.3127 29.5466 20.8874C20.1203 21.9574 12.592 26.4981 7.05775 34.2502C0.409068 43.5701 -1.15589 54.1565 0.760755 65.1999C2.77493 76.8373 8.60237 86.4732 17.5591 94.0074C26.8481 101.818 37.5455 105.645 49.7478 104.911C57.1592 104.475 65.4122 103.465 74.7207 95.4343C77.0675 96.6235 79.5312 97.0998 83.6186 97.4566C86.7673 97.7545 89.7984 97.2979 92.1452 96.8029C95.8218 96.01 95.5677 92.5401 94.2375 91.9061C83.4629 86.7914 85.8282 88.873 83.6774 87.1877C89.1528 80.586 97.4059 73.7261 100.632 51.5006C100.887 49.7367 100.671 48.6265 100.632 47.1986C100.613 46.327 100.808 45.9896 101.786 45.8902C104.485 45.5726 107.105 44.8202 109.511 43.4713C116.492 39.5854 119.308 33.2015 119.973 25.5488C120.071 24.3793 119.954 23.1697 118.741 22.5555V22.5545ZM57.9033 91.4289C47.46 83.0632 42.3954 80.3066 40.3031 80.4257C38.3477 80.5449 38.6993 82.8249 39.1295 84.3116C39.579 85.779 40.1665 86.7898 40.9874 88.0784C41.5545 88.9313 41.9459 90.1995 40.4206 91.152C37.0572 93.2728 31.2097 90.4381 30.9356 90.2989C24.1303 86.2148 18.4394 80.8223 14.4301 73.4474C10.5584 66.3489 8.30914 58.7367 7.93808 50.6076C7.84023 48.6452 8.40763 47.9504 10.3236 47.5943C12.8461 47.118 15.4471 47.0186 17.9699 47.3951C28.6275 48.9816 37.7012 53.8389 45.3086 61.5312C49.6502 65.9122 52.9355 71.147 56.3192 76.2616C59.9174 81.6939 63.7895 86.8688 68.7175 91.1116C70.4582 92.5983 71.8462 93.7286 73.1764 94.5617C69.1671 95.0173 62.4787 95.1167 57.9033 91.4289ZM62.9543 58.2358C63.1198 57.5523 63.7234 57.0514 64.4544 57.0514C64.6347 57.0519 64.8134 57.0853 64.9821 57.1502C65.1975 57.2298 65.3929 57.349 65.5495 57.5267C65.823 57.8048 65.9796 58.2011 65.9796 58.6172C65.9796 59.4898 65.2953 60.1833 64.435 60.1833C64.0719 60.1867 63.7197 60.0565 63.4432 59.8166C63.1667 59.5766 62.9844 59.2431 62.9298 58.8772C62.8959 58.6639 62.9043 58.4458 62.9543 58.2358ZM77.9519 66.9502C77.124 67.2727 76.2999 67.5259 75.5034 67.5589C74.017 67.6379 72.3942 67.0234 71.5145 66.2699C70.1459 65.1005 69.168 64.4468 68.7572 62.4037C68.5812 61.5312 68.6788 60.1833 68.8354 59.4101C69.1874 57.7446 68.796 56.6739 67.6428 55.7026C66.7043 54.9096 65.5107 54.6917 64.2009 54.6917C63.712 54.6917 63.2624 54.4738 62.9298 54.2954C62.3821 54.0183 61.9326 53.3241 62.3627 52.4713C62.5 52.1941 63.1649 51.5197 63.3215 51.4012C65.1006 50.37 67.1545 50.707 69.0508 51.4802C70.8108 52.2139 72.141 53.5618 74.0573 55.4649C76.0127 57.7644 76.3647 58.3993 77.4798 60.124C78.3601 61.4719 79.1617 62.8603 79.7094 64.4458C79.988 65.275 79.7319 65.9805 78.9657 66.4781C78.654 66.6805 78.2957 66.8161 77.9519 66.9502Z" fill="#4D6BFE"/>
</svg>
