<svg width="85" height="85" viewBox="0 0 85 85" fill="none" xmlns="http://www.w3.org/2000/svg">
<g clip-path="url(#clip0_28_188)">
<path d="M28.3335 85.0001C36.1536 85.0001 42.5004 78.6533 42.5004 70.8333V56.6665H28.3335C20.5135 56.6665 14.1667 63.0133 14.1667 70.8333C14.1667 78.6533 20.5135 85.0001 28.3335 85.0001Z" fill="#0ACF83"/>
<path d="M14.1667 42.5C14.1667 34.68 20.5135 28.3333 28.3335 28.3333H42.5004V56.6665H28.3335C20.5135 56.6668 14.1667 50.32 14.1667 42.5Z" fill="#A259FF"/>
<path d="M14.1667 14.1668C14.1667 6.34678 20.5135 0 28.3335 0H42.5004V28.3332H28.3335C20.5135 28.3332 14.1667 21.9868 14.1667 14.1668Z" fill="#F24E1E"/>
<path d="M42.4996 0H56.6665C64.4865 0 70.8333 6.34678 70.8333 14.1668C70.8333 21.9868 64.4865 28.3332 56.6665 28.3332H42.4996V0Z" fill="#FF7262"/>
<path d="M70.8333 42.5C70.8333 50.32 64.4865 56.6668 56.6665 56.6668C48.8464 56.6668 42.4996 50.32 42.4996 42.5C42.4996 34.68 48.8464 28.3333 56.6665 28.3333C64.4865 28.3333 70.8333 34.68 70.8333 42.5Z" fill="#1ABCFE"/>
</g>
<defs>
<clipPath id="clip0_28_188">
<rect width="85" height="85" fill="white"/>
</clipPath>
</defs>
</svg>
