<svg width="87" height="85" viewBox="0 0 87 85" fill="none" xmlns="http://www.w3.org/2000/svg">
<path fill-rule="evenodd" clip-rule="evenodd" d="M43.5 0C19.4662 0 0 19.4998 0 43.575C0 62.8569 12.4519 79.1431 29.7431 84.9168C31.9181 85.298 32.7337 83.9908 32.7337 82.8469C32.7337 81.812 32.6794 78.3805 32.6794 74.7311C21.75 76.7465 18.9225 72.0621 18.0525 69.611C17.5631 68.3583 15.4425 64.491 13.5938 63.4561C12.0712 62.639 9.89625 60.6237 13.5394 60.5692C16.965 60.5148 19.4119 63.7284 20.2275 65.0357C24.1425 71.6264 30.3956 69.7745 32.8969 68.6306C33.2775 65.7982 34.4194 63.8918 35.67 62.8025C25.9912 61.7131 15.8775 57.9547 15.8775 41.2873C15.8775 36.5485 17.5631 32.6268 20.3363 29.5765C19.9013 28.4872 18.3787 24.0207 20.7712 18.0292C20.7712 18.0292 24.4144 16.8853 32.7337 22.4956C36.2137 21.5152 39.9113 21.0249 43.6088 21.0249C47.3063 21.0249 51.0038 21.5152 54.4838 22.4956C62.8031 16.8308 66.4463 18.0292 66.4463 18.0292C68.8388 24.0207 67.3162 28.4872 66.8812 29.5765C69.6544 32.6268 71.34 36.4941 71.34 41.2873C71.34 58.0092 61.1719 61.7131 51.4931 62.8025C53.07 64.1642 54.4294 66.7787 54.4294 70.8638C54.4294 76.692 54.375 81.3763 54.375 82.8469C54.375 83.9908 55.1906 85.3525 57.3656 84.9168C74.5481 79.1431 87 62.8025 87 43.575C87 19.4998 67.5338 0 43.5 0Z" fill="#1B1F23"/>
</svg>
