<svg width="85" height="85" viewBox="0 0 85 85" fill="none" xmlns="http://www.w3.org/2000/svg">
<rect x="5.3125" y="5.3125" width="74.375" height="74.375" fill="#FFCA28"/>
<path d="M50.4688 67.1703L55.9447 63.5469C56.3738 64.8952 59.0913 68.0972 62.524 68.0972C65.9567 68.0972 67.5505 66.2224 67.5505 64.9795C67.5505 61.5922 64.0453 60.3979 62.3618 59.8243C62.0873 59.7308 61.8613 59.6538 61.7067 59.5865C61.6275 59.552 61.5076 59.5062 61.3537 59.4474C59.4813 58.732 52.5733 56.0928 52.5733 48.4424C52.5733 40.0159 60.7055 39.0469 62.5445 39.0469C63.7476 39.0469 69.5325 39.1943 72.4135 44.6084L67.101 48.316C65.9363 45.9566 64.0012 45.1772 62.8101 45.1772C59.8678 45.1772 59.2548 47.3342 59.2548 48.316C59.2548 51.0711 62.4515 52.306 65.1507 53.3487C65.8569 53.6215 66.529 53.8811 67.101 54.1514C70.0433 55.5418 74.375 57.8169 74.375 64.9795C74.375 68.5669 71.366 74.375 63.7909 74.375C53.6154 74.375 50.9183 68.2658 50.4688 67.1703Z" fill="#3E3E3E"/>
<path d="M23.9062 67.8899L29.6137 64.2683C30.0609 65.6159 31.7987 68.1004 34.3202 68.1004C36.8416 68.1004 38.1322 65.5106 38.1322 64.2683V39.8438H45.1515V64.2683C45.265 67.6372 43.3967 74.375 35.1507 74.375C27.5692 74.375 24.4174 69.8691 23.9062 67.8899Z" fill="#3E3E3E"/>
</svg>
