<svg width="565" height="178" viewBox="0 0 565 178" fill="none" xmlns="http://www.w3.org/2000/svg">
<path d="M2.05 75V1.25H20.55C25.4167 1.25 29.8 2.1 33.7 3.8C37.6333 5.5 40.9833 7.95 43.75 11.15C46.55 14.3167 48.7 18.1833 50.2 22.75C51.7 27.2833 52.45 32.4 52.45 38.1C52.45 43.8 51.7 48.9333 50.2 53.5C48.7 58.0333 46.55 61.9 43.75 65.1C40.9833 68.3 37.6333 70.75 33.7 72.45C29.8 74.15 25.4167 75 20.55 75H2.05ZM10.65 72.35L6.8 67.5H19.55C24.2833 67.5 28.4667 66.3167 32.1 63.95C35.7667 61.55 38.6333 58.15 40.7 53.75C42.7667 49.35 43.8 44.1333 43.8 38.1C43.8 32.0333 42.7667 26.8167 40.7 22.45C38.6333 18.05 35.7667 14.6667 32.1 12.3C28.4667 9.93333 24.2833 8.75 19.55 8.75H6.8L10.65 3.9V72.35ZM58.0797 75L78.3797 1.05H91.6797L111.83 75H103.03L84.9797 6.6H85.0797L66.8797 75H58.0797ZM68.5797 55.45V47.95H101.48V55.45H68.5797ZM171.255 47.8C171.255 57.3667 169.021 64.4667 164.555 69.1C160.088 73.7 153.871 76 145.905 76C137.971 76 131.771 73.7 127.305 69.1C122.838 64.4667 120.605 57.3667 120.605 47.8C120.605 46.3333 120.605 44.7833 120.605 43.15C120.605 41.4833 120.605 39.7333 120.605 37.9V1.25H129.155V38.65C129.155 40.3833 129.155 42 129.155 43.5C129.155 45 129.155 46.3833 129.155 47.65C129.155 55.05 130.571 60.35 133.405 63.55C136.238 66.7167 140.405 68.3 145.905 68.3C151.438 68.3 155.621 66.7167 158.455 63.55C161.321 60.35 162.755 55.05 162.755 47.65V1.25H171.255V47.8ZM213.101 76C207.601 76 202.601 74.5 198.101 71.5C193.601 68.5 190.017 64.1833 187.351 58.55C184.684 52.9167 183.351 46.1333 183.351 38.2C183.351 30.2667 184.701 23.4833 187.401 17.85C190.101 12.2167 193.751 7.9 198.351 4.9C202.984 1.86666 208.167 0.349998 213.901 0.349998C218.567 0.349998 222.517 1.16666 225.751 2.79999C229.017 4.4 231.667 6.48333 233.701 9.05C235.767 11.5833 237.267 14.2833 238.201 17.15C239.134 19.9833 239.601 22.65 239.601 25.15C239.601 25.25 239.601 25.35 239.601 25.45C239.601 25.55 239.601 25.65 239.601 25.75H231.301C231.301 25.65 231.301 25.55 231.301 25.45C231.301 25.35 231.301 25.25 231.301 25.15C231.301 23.15 230.951 21.15 230.251 19.15C229.584 17.1167 228.534 15.2833 227.101 13.65C225.667 11.9833 223.851 10.65 221.651 9.65C219.484 8.65 216.901 8.15 213.901 8.15C209.867 8.15 206.184 9.25 202.851 11.45C199.551 13.65 196.901 16.9833 194.901 21.45C192.934 25.8833 191.951 31.4667 191.951 38.2C191.951 43.3667 192.501 47.85 193.601 51.65C194.701 55.4167 196.217 58.5333 198.151 61C200.084 63.4667 202.334 65.3 204.901 66.5C207.501 67.7 210.301 68.3 213.301 68.3C217.267 68.3 220.517 67.6167 223.051 66.25C225.617 64.8833 227.601 63.1833 229.001 61.15C230.401 59.0833 231.301 57.05 231.701 55.05V47.3H213.651V40.15H239.401V75H233.051L232.601 66.8C232.334 67.3 231.784 68.05 230.951 69.05C230.117 70.05 228.934 71.0833 227.401 72.15C225.901 73.2167 223.967 74.1333 221.601 74.9C219.234 75.6333 216.401 76 213.101 76ZM247.24 75L267.54 1.05H280.84L300.99 75H292.19L274.14 6.6H274.24L256.04 75H247.24ZM257.74 55.45V47.95H290.64V55.45H257.74ZM307.201 75L327.501 1.05H340.801L360.951 75H352.151L334.101 6.6H334.201L316.001 75H307.201ZM317.701 55.45V47.95H350.601V55.45H317.701ZM371.093 75V1.25H396.693C403.46 1.25 408.61 2.85 412.143 6.05C415.676 9.25 417.443 14.1333 417.443 20.7C417.443 24.6333 416.693 27.9833 415.193 30.75C413.726 33.4833 411.943 35.6 409.843 37.1C407.776 38.6 405.86 39.45 404.093 39.65C405.893 39.7833 407.66 40.2833 409.393 41.15C411.16 41.9833 412.626 43.2833 413.793 45.05C414.96 46.8167 415.543 49.1833 415.543 52.15C415.543 54.8833 415.543 57.6833 415.543 60.55C415.543 63.3833 415.543 66.1833 415.543 68.95C415.543 70.3833 415.66 71.6667 415.893 72.8C416.126 73.9 416.393 74.6333 416.693 75H408.093C407.86 74.5667 407.626 73.8167 407.393 72.75C407.16 71.6833 407.043 70.4167 407.043 68.95C407.043 66.3833 407.043 63.7667 407.043 61.1C407.043 58.4333 407.043 55.8 407.043 53.2C407.043 49.9333 406.01 47.5 403.943 45.9C401.876 44.3 398.96 43.5 395.193 43.5H377.043L379.443 40.25V75H371.093ZM379.443 39.55L377.043 36H395.293C397.76 36 399.993 35.4 401.993 34.2C404.026 32.9667 405.643 31.2667 406.843 29.1C408.076 26.9 408.693 24.3333 408.693 21.4C408.693 16.8333 407.493 13.5833 405.093 11.65C402.693 9.71666 399.226 8.75 394.693 8.75H376.843L379.443 5.05V39.55ZM430.566 75V1.25H449.066C453.932 1.25 458.316 2.1 462.216 3.8C466.149 5.5 469.499 7.95 472.266 11.15C475.066 14.3167 477.216 18.1833 478.716 22.75C480.216 27.2833 480.966 32.4 480.966 38.1C480.966 43.8 480.216 48.9333 478.716 53.5C477.216 58.0333 475.066 61.9 472.266 65.1C469.499 68.3 466.149 70.75 462.216 72.45C458.316 74.15 453.932 75 449.066 75H430.566ZM439.166 72.35L435.316 67.5H448.066C452.799 67.5 456.982 66.3167 460.616 63.95C464.282 61.55 467.149 58.15 469.216 53.75C471.282 49.35 472.316 44.1333 472.316 38.1C472.316 32.0333 471.282 26.8167 469.216 22.45C467.149 18.05 464.282 14.6667 460.616 12.3C456.982 9.93333 452.799 8.75 448.066 8.75H435.316L439.166 3.9V72.35ZM56.2 151.35C56.2 154.317 55.65 157.367 54.55 160.5C53.45 163.6 51.7833 166.483 49.55 169.15C47.35 171.783 44.5667 173.917 41.2 175.55C37.8333 177.183 33.8833 178 29.35 178C23.1167 178 17.8167 176.383 13.45 173.15C9.08333 169.883 5.75 165.4 3.45 159.7C1.18333 154 0.0500002 147.483 0.0500002 140.15C0.0500002 132.783 1.18333 126.267 3.45 120.6C5.75 114.9 9.08333 110.433 13.45 107.2C17.8167 103.967 23.1167 102.35 29.35 102.35C34.55 102.35 38.9833 103.417 42.65 105.55C46.3167 107.683 49.2333 110.4 51.4 113.7C53.5667 117 54.9833 120.4 55.65 123.9C56.0167 125.667 56.2 127.333 56.2 128.9H47.65C47.65 128 47.5667 126.967 47.4 125.8C47 123 46.0333 120.417 44.5 118.05C43 115.65 40.9833 113.733 38.45 112.3C35.9167 110.833 32.8833 110.1 29.35 110.1C25.2167 110.1 21.6 111.233 18.5 113.5C15.4333 115.767 13.0333 119.133 11.3 123.6C9.6 128.067 8.75 133.583 8.75 140.15C8.75 146.717 9.6 152.25 11.3 156.75C13.0333 161.217 15.4333 164.6 18.5 166.9C21.6 169.167 25.2167 170.3 29.35 170.3C32.3167 170.3 34.9333 169.767 37.2 168.7C39.4667 167.6 41.3667 166.15 42.9 164.35C44.4667 162.517 45.65 160.483 46.45 158.25C47.25 155.983 47.65 153.683 47.65 151.35H56.2ZM95.7609 178C91.4609 178 87.5109 177.15 83.9109 175.45C80.3443 173.75 77.2276 171.283 74.5609 168.05C71.9276 164.783 69.8776 160.8 68.4109 156.1C66.9776 151.4 66.2609 146.05 66.2609 140.05C66.2609 134.05 66.9776 128.717 68.4109 124.05C69.8776 119.35 71.9276 115.4 74.5609 112.2C77.2276 108.967 80.3609 106.517 83.9609 104.85C87.5609 103.183 91.4943 102.35 95.7609 102.35C100.061 102.35 104.011 103.183 107.611 104.85C111.211 106.517 114.328 108.967 116.961 112.2C119.628 115.4 121.678 119.35 123.111 124.05C124.578 128.717 125.311 134.05 125.311 140.05C125.311 146.05 124.578 151.4 123.111 156.1C121.678 160.8 119.628 164.783 116.961 168.05C114.328 171.283 111.211 173.75 107.611 175.45C104.011 177.15 100.061 178 95.7609 178ZM95.7609 170.3C99.8609 170.3 103.478 169.183 106.611 166.95C109.744 164.717 112.194 161.367 113.961 156.9C115.728 152.4 116.611 146.783 116.611 140.05C116.611 133.283 115.711 127.683 113.911 123.25C112.144 118.817 109.694 115.517 106.561 113.35C103.428 111.183 99.8276 110.1 95.7609 110.1C91.7276 110.1 88.1276 111.183 84.9609 113.35C81.8276 115.517 79.3609 118.817 77.5609 123.25C75.7943 127.683 74.9109 133.283 74.9109 140.05C74.9109 146.817 75.7943 152.45 77.5609 156.95C79.3609 161.417 81.8276 164.767 84.9609 167C88.1276 169.2 91.7276 170.3 95.7609 170.3ZM145.702 177H137.402V103.25H151.352L182.652 172.1L182.002 172.5V103.25H190.302V177H176.152L144.952 108.25L145.702 107.9V177ZM226.694 178C221.594 178 217.227 177.2 213.594 175.6C209.994 173.967 207.227 171.517 205.294 168.25C203.36 164.983 202.394 160.917 202.394 156.05C202.394 155.383 202.394 154.817 202.394 154.35C202.394 153.883 202.394 153.317 202.394 152.65H210.944C210.944 153.283 210.944 153.817 210.944 154.25C210.944 154.683 210.944 155.233 210.944 155.9C210.944 161 212.277 164.683 214.944 166.95C217.61 169.183 221.494 170.3 226.594 170.3C231.86 170.3 235.844 169.4 238.544 167.6C241.244 165.8 242.594 162.883 242.594 158.85C242.594 156.017 241.81 153.667 240.244 151.8C238.71 149.9 236.577 148.3 233.844 147C231.11 145.667 227.927 144.45 224.294 143.35C220.194 142.083 216.527 140.483 213.294 138.55C210.094 136.617 207.56 134.233 205.694 131.4C203.86 128.533 202.944 125.05 202.944 120.95C202.944 116.95 203.91 113.567 205.844 110.8C207.81 108.033 210.544 105.933 214.044 104.5C217.544 103.067 221.61 102.35 226.244 102.35C231.144 102.35 235.394 103.117 238.994 104.65C242.627 106.15 245.427 108.45 247.394 111.55C249.394 114.617 250.394 118.483 250.394 123.15C250.394 123.883 250.394 124.517 250.394 125.05C250.394 125.55 250.394 126.167 250.394 126.9H241.844C241.844 126.267 241.844 125.7 241.844 125.2C241.844 124.7 241.844 124.133 241.844 123.5C241.844 118.633 240.527 115.183 237.894 113.15C235.26 111.083 231.427 110.05 226.394 110.05C221.56 110.05 217.827 110.9 215.194 112.6C212.56 114.3 211.244 117.083 211.244 120.95C211.244 123.85 212.044 126.25 213.644 128.15C215.277 130.017 217.494 131.617 220.294 132.95C223.094 134.25 226.294 135.5 229.894 136.7C234.26 138.133 238.01 139.767 241.144 141.6C244.31 143.4 246.727 145.65 248.394 148.35C250.094 151.05 250.944 154.45 250.944 158.55C250.944 162.65 249.96 166.15 247.994 169.05C246.06 171.95 243.277 174.167 239.644 175.7C236.044 177.233 231.727 178 226.694 178ZM313.735 149.8C313.735 159.367 311.502 166.467 307.035 171.1C302.568 175.7 296.352 178 288.385 178C280.452 178 274.252 175.7 269.785 171.1C265.318 166.467 263.085 159.367 263.085 149.8C263.085 148.333 263.085 146.783 263.085 145.15C263.085 143.483 263.085 141.733 263.085 139.9V103.25H271.635V140.65C271.635 142.383 271.635 144 271.635 145.5C271.635 147 271.635 148.383 271.635 149.65C271.635 157.05 273.052 162.35 275.885 165.55C278.718 168.717 282.885 170.3 288.385 170.3C293.918 170.3 298.102 168.717 300.935 165.55C303.802 162.35 305.235 157.05 305.235 149.65V103.25H313.735V149.8ZM327.831 177V103.25H336.381V174.35L332.531 169.5H365.481V177H327.831ZM409.331 110.75H388.031L389.981 105.9V177H381.481V105.9L383.881 110.75H362.181V103.25H409.331V110.75ZM420.662 177V103.25H429.062V177H420.662ZM451.854 177H443.554V103.25H457.504L488.804 172.1L488.154 172.5V103.25H496.454V177H482.304L451.104 108.25L451.854 107.9V177ZM538.296 178C532.796 178 527.796 176.5 523.296 173.5C518.796 170.5 515.213 166.183 512.546 160.55C509.879 154.917 508.546 148.133 508.546 140.2C508.546 132.267 509.896 125.483 512.596 119.85C515.296 114.217 518.946 109.9 523.546 106.9C528.179 103.867 533.363 102.35 539.096 102.35C543.763 102.35 547.713 103.167 550.946 104.8C554.213 106.4 556.863 108.483 558.896 111.05C560.963 113.583 562.463 116.283 563.396 119.15C564.329 121.983 564.796 124.65 564.796 127.15C564.796 127.25 564.796 127.35 564.796 127.45C564.796 127.55 564.796 127.65 564.796 127.75H556.496C556.496 127.65 556.496 127.55 556.496 127.45C556.496 127.35 556.496 127.25 556.496 127.15C556.496 125.15 556.146 123.15 555.446 121.15C554.779 119.117 553.729 117.283 552.296 115.65C550.863 113.983 549.046 112.65 546.846 111.65C544.679 110.65 542.096 110.15 539.096 110.15C535.063 110.15 531.379 111.25 528.046 113.45C524.746 115.65 522.096 118.983 520.096 123.45C518.129 127.883 517.146 133.467 517.146 140.2C517.146 145.367 517.696 149.85 518.796 153.65C519.896 157.417 521.413 160.533 523.346 163C525.279 165.467 527.529 167.3 530.096 168.5C532.696 169.7 535.496 170.3 538.496 170.3C542.463 170.3 545.713 169.617 548.246 168.25C550.813 166.883 552.796 165.183 554.196 163.15C555.596 161.083 556.496 159.05 556.896 157.05V149.3H538.846V142.15H564.596V177H558.246L557.796 168.8C557.529 169.3 556.979 170.05 556.146 171.05C555.313 172.05 554.129 173.083 552.596 174.15C551.096 175.217 549.163 176.133 546.796 176.9C544.429 177.633 541.596 178 538.296 178Z" fill="#0F2E4E"/>
</svg>
