<svg width="85" height="85" viewBox="0 0 85 85" fill="none" xmlns="http://www.w3.org/2000/svg">
<g clip-path="url(#clip0_28_80)">
<path d="M18.4137 0H66.5862C76.7492 0 85 8.25096 85 18.4137V66.5862C85 76.7492 76.7492 85 66.5862 85H18.4137C8.25096 85 0 76.7492 0 66.5862V18.4137C0 8.25096 8.25096 0 18.4137 0Z" fill="#FFD02F"/>
<path d="M59.0648 10.6155H49.7321L57.5054 24.2748L40.3996 10.6155H31.0669L39.6197 27.3186L21.7343 10.6155H12.4016L21.7343 31.8718L12.4016 74.3844H21.7343L39.6197 28.828L31.0669 74.3844H40.3996L57.5054 25.8093L49.7321 74.3844H59.0648L76.1707 21.231L59.0648 10.6155Z" fill="#050038"/>
</g>
<defs>
<clipPath id="clip0_28_80">
<rect width="85" height="85" fill="white"/>
</clipPath>
</defs>
</svg>
