<svg width="100" height="100" viewBox="0 0 100 100" fill="none" xmlns="http://www.w3.org/2000/svg">
<g clip-path="url(#clip0_35_1075)">
<path d="M0 25C0 11.1929 11.1929 0 25 0H75C88.8071 0 100 11.1929 100 25V75C100 88.8071 88.8071 100 75 100H25C11.1929 100 0 88.8071 0 75V25Z" fill="#303030"/>
<path fill-rule="evenodd" clip-rule="evenodd" d="M29.7861 17.9688L48.0714 34.8273V18.0077H51.6309V34.9027L69.9981 17.9688V37.19H77.5391V64.9148H70.0213V82.0303L51.6309 65.8622V82.216H48.0714V66.1288L29.8068 82.2266V64.9148H22.2656V37.19H29.7861V17.9688ZM45.388 40.7083H25.8251V61.3965H29.8023V54.8706L45.388 40.7083ZM33.366 56.4317V74.3757L48.0714 61.415V43.0661L33.366 56.4317ZM51.7333 61.2435V43.0488L66.4429 56.4153V64.9148H66.4618V74.1925L51.7333 61.2435ZM70.0213 61.3965H73.9796V40.7083H54.5624L70.0213 54.724V61.3965ZM66.4387 37.19V26.0616L54.3683 37.19H66.4387ZM45.4156 37.19H33.3455V26.0616L45.4156 37.19Z" fill="white"/>
</g>
<defs>
<clipPath id="clip0_35_1075">
<rect width="100" height="100" fill="white"/>
</clipPath>
</defs>
</svg>
