<svg width="85" height="97" viewBox="0 0 85 97" fill="none" xmlns="http://www.w3.org/2000/svg">
<g clip-path="url(#clip0_28_102)">
<path d="M74.2968 18.9998C74.23 18.516 73.8054 18.2483 73.4545 18.2188C73.1042 18.1896 65.6914 17.6412 65.6914 17.6412C65.6914 17.6412 60.5431 12.54 59.978 11.9754C59.4126 11.4111 58.3084 11.5827 57.8798 11.7086C57.8167 11.7272 56.755 12.0543 54.9987 12.5967C53.279 7.65752 50.2439 3.11863 44.9043 3.11863C44.7569 3.11863 44.6052 3.1246 44.4535 3.13321C42.9349 1.12885 41.0538 0.258057 39.429 0.258057C26.9907 0.258057 21.0483 15.777 19.1851 23.6632C14.3519 25.158 10.9184 26.2206 10.4798 26.3581C7.78197 27.2028 7.69665 27.2876 7.34241 29.8248C7.07581 31.7456 0.0168686 86.2298 0.0168686 86.2298L55.0216 96.5157L84.8251 90.0808C84.8251 90.0808 74.3628 19.4835 74.2971 18.9998H74.2968ZM51.9586 13.5351L47.3043 14.9728C47.306 14.6454 47.3077 14.3234 47.3077 13.9711C47.3077 10.9015 46.8807 8.4299 46.1958 6.47061C48.9471 6.81522 50.7794 9.93955 51.9586 13.5351ZM42.7829 7.07931C43.5478 8.99221 44.0451 11.7375 44.0451 15.442C44.0451 15.6315 44.0435 15.8048 44.0418 15.9801C41.015 16.9159 37.7259 17.9318 34.4295 18.9511C36.2803 11.8216 39.7497 8.37821 42.7829 7.07931ZM39.0874 3.58783C39.6242 3.58783 40.1651 3.76974 40.6826 4.12529C36.6963 5.99744 32.4235 10.7126 30.6191 20.1287L23.021 22.4773C25.1345 15.2952 30.153 3.58783 39.0871 3.58783H39.0874Z" fill="#95BF46"/>
<path d="M73.4545 18.2189C73.1042 18.1897 65.6914 17.6413 65.6914 17.6413C65.6914 17.6413 60.5431 12.5401 59.978 11.9755C59.7666 11.7654 59.4814 11.6577 59.1832 11.6113L55.0243 96.5151L84.8251 90.0809C84.8251 90.0809 74.3625 19.4836 74.2968 18.9999C74.23 18.5161 73.8054 18.2483 73.4545 18.2189Z" fill="#5E8E3E"/>
<path d="M44.9043 34.6547L41.2294 45.5649C41.2294 45.5649 38.0097 43.8498 34.0629 43.8498C28.2769 43.8498 27.9857 47.4738 27.9857 48.387C27.9857 53.3699 41 55.2792 41 66.9508C41 76.1336 35.1645 82.0466 27.2961 82.0466C17.8541 82.0466 13.0255 76.1816 13.0255 76.1816L15.5537 67.8448C15.5537 67.8448 20.5171 72.0977 24.7052 72.0977C27.4419 72.0977 28.5551 69.9472 28.5551 68.3759C28.5551 61.8761 17.878 61.5861 17.878 50.9056C17.878 41.9163 24.3427 33.2173 37.3922 33.2173C42.4203 33.2173 44.9043 34.6547 44.9043 34.6547Z" fill="white"/>
</g>
<defs>
<clipPath id="clip0_28_102">
<rect width="85" height="96.7553" fill="white"/>
</clipPath>
</defs>
</svg>
