<svg width="85" height="85" viewBox="0 0 85 85" fill="none" xmlns="http://www.w3.org/2000/svg">
<path d="M55.786 8.27898C55.786 5.94424 53.1719 5.94421 52.01 6.23605C53.6366 4.95195 55.5439 5.26327 56.2216 5.6524L71.9289 13.3542C73.4256 14.0881 74.375 15.615 74.375 17.2884V67.9552C74.375 69.6509 73.4003 71.1941 71.8733 71.9162L57.093 78.9049C56.0764 79.3426 53.869 80.4224 52.01 78.9048C54.3337 79.3426 55.5923 77.6889 55.786 76.5701V8.27898Z" fill="url(#paint0_linear_31_576)"/>
<path d="M52.1986 6.19372C53.4316 5.95005 55.7859 6.06305 55.7859 8.27874V25.7188L8.16422 61.745C7.33183 62.3747 6.16038 62.2702 5.45139 61.503L0.543289 56.1921C-0.225611 55.3601 -0.171813 54.0578 0.663063 53.2926L52.01 6.23581L52.1986 6.19372Z" fill="#0F6FB3"/>
<path d="M55.7859 59.4219L8.16422 23.3958C7.33183 22.7661 6.16038 22.8705 5.45139 23.6377L0.543289 28.9486C-0.225611 29.7806 -0.171813 31.083 0.663063 31.8481L52.01 78.9049C54.3337 79.3427 55.5923 77.6889 55.7859 76.5701V59.4219Z" fill="url(#paint1_linear_31_576)"/>
<defs>
<linearGradient id="paint0_linear_31_576" x1="63.1925" y1="5.3125" x2="63.1925" y2="79.6875" gradientUnits="userSpaceOnUse">
<stop stop-color="#32B5F1"/>
<stop offset="1" stop-color="#2B9FED"/>
</linearGradient>
<linearGradient id="paint1_linear_31_576" x1="3.06854" y1="26.5192" x2="55.9914" y2="70.3392" gradientUnits="userSpaceOnUse">
<stop stop-color="#1791D2"/>
<stop offset="1" stop-color="#1173C5"/>
</linearGradient>
</defs>
</svg>
