<svg width="85" height="85" viewBox="0 0 85 85" fill="none" xmlns="http://www.w3.org/2000/svg">
<path d="M5.62307 42.5C5.62307 57.1135 14.1231 69.7 26.4154 75.6827L8.82691 27.4943C6.71491 32.215 5.62318 37.3283 5.62307 42.5ZM42.5 79.3769C46.7827 79.3769 50.9019 78.625 54.7596 77.2846L54.4981 76.7943L43.1538 45.7365L32.1038 77.8731C35.3731 78.8538 38.8712 79.3769 42.5 79.3769ZM47.5673 25.2057L60.9057 64.8615L64.6 52.5693C66.1693 47.4693 67.3788 43.8077 67.3788 40.6365C67.3788 36.0596 65.7443 32.9212 64.3712 30.5019C62.475 27.4288 60.7423 24.8462 60.7423 21.8385C60.7423 18.4385 63.2923 15.3 66.9538 15.3H67.4115C60.6166 9.06202 51.7241 5.60771 42.5 5.62307C36.3925 5.62193 30.3804 7.1391 25.0048 10.0381C19.6291 12.9371 15.0583 17.1269 11.7038 22.2307L14.0577 22.2962C17.9154 22.2962 23.8654 21.8057 23.8654 21.8057C25.8923 21.7077 26.1212 24.6173 24.1269 24.8462C24.1269 24.8462 22.1327 25.1077 19.8769 25.2057L33.3462 65.1557L41.4212 40.9635L35.6673 25.2057C34.3785 25.1347 33.092 25.0256 31.8096 24.8788C29.8154 24.7481 30.0443 21.7077 32.0385 21.8057C32.0385 21.8057 38.1193 22.2962 41.7481 22.2962C45.6057 22.2962 51.5557 21.8057 51.5557 21.8057C53.55 21.7077 53.8115 24.6173 51.8173 24.8462C51.8173 24.8462 49.8231 25.075 47.5673 25.2057ZM61.0365 74.375C66.6153 71.1312 71.2451 66.4802 74.4635 60.8868C77.6819 55.2934 79.3761 48.9533 79.3769 42.5C79.3769 36.0923 77.7423 30.0769 74.8654 24.8135C75.4497 30.6042 74.5729 36.449 72.3154 41.8135L61.0365 74.375ZM42.5 85C31.2283 85 20.4183 80.5224 12.448 72.552C4.47766 64.5817 0 53.7717 0 42.5C0 31.2283 4.47766 20.4183 12.448 12.448C20.4183 4.47766 31.2283 0 42.5 0C53.7717 0 64.5817 4.47766 72.552 12.448C80.5224 20.4183 85 31.2283 85 42.5C85 53.7717 80.5224 64.5817 72.552 72.552C64.5817 80.5224 53.7717 85 42.5 85Z" fill="#126FC2"/>
</svg>
